<svg width="386" height="306" viewBox="0 0 386 306" fill="none" xmlns="http://www.w3.org/2000/svg">
<path d="M1 74.8489C111.352 19.1485 158.707 3.07447 168.59 2C176.841 4.06298 174.177 9.73617 171.813 12.3149C82.6036 98.4443 47.4096 161.666 40.9638 182.511C37.8699 193.341 45.4759 194.115 45.4759 194.115C41.8233 194.115 37.3542 194.115 48.6988 194.115C60.0433 194.115 179.333 80.2213 237.56 23.2745C245.94 15.0792 250.452 17.4723 253.03 20.0511C256.088 23.1091 256.253 27.3574 254.964 30.366C150.8 195.404 135.502 261.162 140.873 273.411C144.483 279.084 150.112 277.064 152.476 275.345C302.534 79.3617 362.393 18.3319 373.566 12.3149C384.34 6.51277 384.971 12.3149 383.302 20.0511C382.029 25.9504 371.419 38.8971 367.72 43.7739C332.662 90.0037 285.903 235.16 262.054 305" stroke="url(#paint0_linear)" stroke-width="3"/>
<defs>
<linearGradient id="paint0_linear" x1="192.5" y1="2" x2="192.5" y2="305" gradientUnits="userSpaceOnUse">
<stop stop-color="#0068BB"/>
<stop offset="1" stop-color="#5205E1" stop-opacity="0"/>
</linearGradient>
</defs>
</svg>
